<?xml version="1.0" encoding="UTF-8"?>
<svg
  xmlns="http://www.w3.org/2000/svg"
  viewBox="0 0 640 200"
  role="img"
  aria-label="Pittsburgh yellow self-anchored suspension bridge"
>
  <defs>
    <linearGradient id="bridge-gold" x1="0" y1="0" x2="0" y2="1">
      <stop offset="0%" stop-color="#fff3c4" />
      <stop offset="45%" stop-color="#ffb81c" />
      <stop offset="100%" stop-color="#e6a010" />
    </linearGradient>
  </defs>

  <g fill="url(#bridge-gold)" stroke="none">
    <rect x="4" y="138" width="24" height="52" />
    <rect x="0" y="186" width="32" height="6" />
    <rect x="612" y="138" width="24" height="52" />
    <rect x="608" y="186" width="32" height="6" />
  </g>

  <g fill="url(#bridge-gold)" stroke="none">
    <rect x="14" y="138" width="612" height="10" rx="1" />
    <rect x="14" y="150" width="612" height="3" opacity="0.55" />
  </g>

  <g fill="url(#bridge-gold)" stroke="none">
    <rect x="132" y="30" width="8" height="108" />
    <rect x="154" y="30" width="8" height="108" />
    <polygon points="130,30 136,20 142,30" />
    <polygon points="152,30 158,20 164,30" />
    <rect x="128" y="34" width="38" height="5" />
    <rect x="130" y="70" width="34" height="4" />
    <rect x="132" y="106" width="30" height="3.5" />
    <rect x="138" y="26" width="18" height="6" rx="1" />

    <rect x="478" y="30" width="8" height="108" />
    <rect x="500" y="30" width="8" height="108" />
    <polygon points="476,30 482,20 488,30" />
    <polygon points="498,30 504,20 510,30" />
    <rect x="474" y="34" width="38" height="5" />
    <rect x="476" y="70" width="34" height="4" />
    <rect x="478" y="106" width="30" height="3.5" />
    <rect x="484" y="26" width="18" height="6" rx="1" />
  </g>

  <g stroke="url(#bridge-gold)" stroke-width="1.3" fill="none">
    <line x1="140" y1="39" x2="154" y2="70" />
    <line x1="154" y1="39" x2="140" y2="70" />
    <line x1="140" y1="74" x2="154" y2="106" />
    <line x1="154" y1="74" x2="140" y2="106" />
    <line x1="140" y1="110" x2="154" y2="137" />
    <line x1="154" y1="110" x2="140" y2="137" />

    <line x1="486" y1="39" x2="500" y2="70" />
    <line x1="500" y1="39" x2="486" y2="70" />
    <line x1="486" y1="74" x2="500" y2="106" />
    <line x1="500" y1="74" x2="486" y2="106" />
    <line x1="486" y1="110" x2="500" y2="137" />
    <line x1="500" y1="110" x2="486" y2="137" />
  </g>

  <path
    d="M14 138 C 26 138, 40 91, 52 82 L84 58 L116 40 L147 26 L185 60 L220 90 L255 115 L290 128 L320 132 L350 128 L385 115 L420 90 L455 60 L493 26 L524 40 L556 58 L588 82 C 600 91, 614 138, 626 138"
    fill="none"
    stroke="url(#bridge-gold)"
    stroke-width="4"
    stroke-linecap="round"
    stroke-linejoin="miter"
  />

  <g fill="url(#bridge-gold)" stroke="none">
    <circle cx="52" cy="82" r="2.6" />
    <circle cx="84" cy="58" r="2.6" />
    <circle cx="116" cy="40" r="2.6" />
    <circle cx="185" cy="60" r="2.6" />
    <circle cx="220" cy="90" r="2.6" />
    <circle cx="255" cy="115" r="2.6" />
    <circle cx="290" cy="128" r="2.6" />
    <circle cx="320" cy="132" r="2.6" />
    <circle cx="350" cy="128" r="2.6" />
    <circle cx="385" cy="115" r="2.6" />
    <circle cx="420" cy="90" r="2.6" />
    <circle cx="455" cy="60" r="2.6" />
    <circle cx="524" cy="40" r="2.6" />
    <circle cx="556" cy="58" r="2.6" />
    <circle cx="588" cy="82" r="2.6" />
  </g>

  <g stroke="url(#bridge-gold)" stroke-width="3" stroke-linecap="round">
    <line x1="52" y1="82" x2="52" y2="138" />
    <line x1="84" y1="58" x2="84" y2="138" />
    <line x1="116" y1="40" x2="116" y2="138" />

    <line x1="185" y1="60" x2="185" y2="138" />
    <line x1="220" y1="90" x2="220" y2="138" />
    <line x1="255" y1="115" x2="255" y2="138" />
    <line x1="290" y1="128" x2="290" y2="138" />
    <line x1="320" y1="132" x2="320" y2="138" />
    <line x1="350" y1="128" x2="350" y2="138" />
    <line x1="385" y1="115" x2="385" y2="138" />
    <line x1="420" y1="90" x2="420" y2="138" />
    <line x1="455" y1="60" x2="455" y2="138" />

    <line x1="524" y1="40" x2="524" y2="138" />
    <line x1="556" y1="58" x2="556" y2="138" />
    <line x1="588" y1="82" x2="588" y2="138" />
  </g>

  <g stroke="url(#bridge-gold)" stroke-width="2.8" stroke-linecap="round">
    <line x1="36" y1="107" x2="36" y2="138" />
    <line x1="68" y1="70" x2="68" y2="138" />
    <line x1="100" y1="49" x2="100" y2="138" />
    <line x1="166" y1="43" x2="166" y2="138" />
    <line x1="202" y1="75" x2="202" y2="138" />
    <line x1="237" y1="102" x2="237" y2="138" />
    <line x1="272" y1="121" x2="272" y2="138" />
    <line x1="305" y1="130" x2="305" y2="138" />
    <line x1="335" y1="130" x2="335" y2="138" />
    <line x1="367" y1="121" x2="367" y2="138" />
    <line x1="402" y1="102" x2="402" y2="138" />
    <line x1="437" y1="75" x2="437" y2="138" />
    <line x1="474" y1="43" x2="474" y2="138" />
    <line x1="540" y1="49" x2="540" y2="138" />
    <line x1="572" y1="70" x2="572" y2="138" />
    <line x1="604" y1="107" x2="604" y2="138" />
  </g>

  <g stroke="url(#bridge-gold)" stroke-width="2.6" stroke-linecap="round">
    <line x1="60" y1="76" x2="60" y2="138" />
    <line x1="76" y1="64" x2="76" y2="138" />
    <line x1="108" y1="45" x2="108" y2="138" />
    <line x1="193" y1="68" x2="193" y2="138" />
    <line x1="228" y1="96" x2="228" y2="138" />
    <line x1="263" y1="118" x2="263" y2="138" />
    <line x1="297" y1="129" x2="297" y2="138" />
    <line x1="358" y1="125" x2="358" y2="138" />
    <line x1="428" y1="83" x2="428" y2="138" />
    <line x1="564" y1="64" x2="564" y2="138" />
  </g>
</svg>
